<svg width="40" height="40" viewBox="0 0 40 40" fill="none" xmlns="http://www.w3.org/2000/svg">
<path d="M33.3277 38.3952C30.7431 40.506 27.9212 40.1727 25.2048 39.1728C22.3302 38.1507 19.6929 38.1063 16.66 39.1728C12.8623 40.5504 10.8579 40.1505 8.58986 38.3952C-4.28012 27.2188 -2.38127 10.1987 12.2293 9.57657C15.7897 9.7321 18.2687 11.2208 20.3522 11.3541C23.4642 10.8209 26.4443 9.28772 29.7673 9.48769C33.7496 9.75432 36.7561 11.0875 38.7341 13.4872C30.5058 17.6422 32.4573 26.7744 40 29.3296C38.4967 32.6625 36.5452 35.9732 33.3013 38.4174L33.3277 38.3952ZM20.0885 9.44325C19.6929 4.48832 24.4664 0.39995 29.9519 0C30.7167 5.73261 23.7807 9.99874 20.0885 9.44325Z" fill="black"/>
</svg>
