<svg width="28" height="28" viewBox="0 0 28 28" fill="none" xmlns="http://www.w3.org/2000/svg">
<path d="M11.9587 26.25C13.0862 26.25 14.0003 25.3359 14.0003 24.2083C14.0003 23.0807 13.0862 22.1667 11.9587 22.1667C10.8311 22.1667 9.91699 23.0807 9.91699 24.2083C9.91699 25.3359 10.8311 26.25 11.9587 26.25Z" fill="black"/>
<path d="M21.8757 26.25C23.0032 26.25 23.9173 25.3359 23.9173 24.2083C23.9173 23.0807 23.0032 22.1667 21.8757 22.1667C20.7481 22.1667 19.834 23.0807 19.834 24.2083C19.834 25.3359 20.7481 26.25 21.8757 26.25Z" fill="black"/>
<path d="M2.91699 3.5L8.16699 7L11.0837 19.8333H22.7503L25.667 9.91667H14.5837" stroke="black" stroke-width="2" stroke-linecap="round" stroke-linejoin="round"/>
<path d="M14.584 15.1667H18.8264H23.9173" stroke="black" stroke-width="2" stroke-linecap="round" stroke-linejoin="round"/>
</svg>
