<svg width="42" height="43" viewBox="0 0 42 43" fill="none" xmlns="http://www.w3.org/2000/svg">
<path d="M42 21.5C42 9.90209 32.5979 0.5 21 0.5C9.40209 0.5 0 9.90209 0 21.5C0 31.9816 7.67944 40.6696 17.7188 42.2449V27.5703H12.3867V21.5H17.7188V16.8734C17.7188 11.6103 20.854 8.70312 25.6508 8.70312C27.9484 8.70312 30.3516 9.11328 30.3516 9.11328V14.2812H27.7036C25.0948 14.2812 24.2812 15.9001 24.2812 17.5609V21.5H30.1055L29.1744 27.5703H24.2812V42.2449C34.3206 40.6696 42 31.9818 42 21.5Z" fill="#1877F2"/>
<path d="M29.1744 27.5703L30.1055 21.5H24.2812V17.5609C24.2812 15.8999 25.0948 14.2812 27.7036 14.2812H30.3516V9.11328C30.3516 9.11328 27.9484 8.70312 25.6507 8.70312C20.854 8.70312 17.7188 11.6103 17.7188 16.8734V21.5H12.3867V27.5703H17.7188V42.2449C18.8042 42.415 19.9013 42.5003 21 42.5C22.0987 42.5003 23.1958 42.415 24.2812 42.2449V27.5703H29.1744Z" fill="white"/>
</svg>
