<svg width="28" height="24" viewBox="0 0 28 24" fill="none" xmlns="http://www.w3.org/2000/svg">
<path d="M15.2374 2.25C14.9092 1.96879 14.4642 1.81082 14.0001 1.81082C13.5361 1.81082 13.0911 1.96879 12.7629 2.25L1.13063 12.219C1.04927 12.2887 0.984741 12.3715 0.940713 12.4626C0.896685 12.5537 0.874023 12.6514 0.874023 12.75C0.874023 12.8486 0.896685 12.9463 0.940713 13.0374C0.984741 13.1285 1.04927 13.2113 1.13063 13.281C1.29493 13.4218 1.51777 13.5009 1.75013 13.5009C1.86518 13.5009 1.97911 13.4815 2.0854 13.4438C2.19169 13.406 2.28827 13.3507 2.36963 13.281L14.0001 3.3105L25.6306 13.281C25.7949 13.4218 26.0178 13.5009 26.2501 13.5009C26.4825 13.5009 26.7053 13.4218 26.8696 13.281C27.0339 13.1402 27.1262 12.9492 27.1262 12.75C27.1262 12.5508 27.0339 12.3598 26.8696 12.219L22.7501 8.6895V3.75C22.7501 3.55109 22.6579 3.36032 22.4938 3.21967C22.3298 3.07902 22.1072 3 21.8751 3H20.1251C19.8931 3 19.6705 3.07902 19.5064 3.21967C19.3423 3.36032 19.2501 3.55109 19.2501 3.75V5.6895L15.2374 2.25Z" fill="black"/>
<path d="M14 4.9395L24.5 13.9395V20.25C24.5 20.8467 24.2234 21.419 23.7312 21.841C23.2389 22.2629 22.5712 22.5 21.875 22.5H6.125C5.42881 22.5 4.76113 22.2629 4.26884 21.841C3.77656 21.419 3.5 20.8467 3.5 20.25V13.9395L14 4.9395Z" fill="black"/>
</svg>
