<svg width="24" height="24" viewBox="0 0 24 24" fill="none" xmlns="http://www.w3.org/2000/svg">
<path fill-rule="evenodd" clip-rule="evenodd" d="M3 10.415V15C3 17.828 3 19.243 3.879 20.121C4.757 21 6.172 21 9 21H15C17.828 21 19.243 21 20.121 20.121C21 19.243 21 17.828 21 15V10.415L19.293 12.121C19.0146 12.3998 18.684 12.621 18.32 12.772C17.9561 12.923 17.566 13.0008 17.172 13.001H6.828C6.03262 13.0003 5.27007 12.6838 4.708 12.121L3 10.415ZM3.237 7.823L6.121 10.707C6.30849 10.8945 6.56281 10.9999 6.828 11H17.172C17.4372 10.9999 17.6915 10.8945 17.879 10.707L20.763 7.823C20.7015 7.64411 20.6182 7.47349 20.515 7.315C20.031 6.569 19.166 6.185 17.437 5.416L13.625 3.722C12.825 3.366 12.425 3.189 12 3.189C11.576 3.189 11.175 3.366 10.375 3.722L6.563 5.416C4.833 6.185 3.969 6.569 3.485 7.315C3.38176 7.47349 3.29846 7.64411 3.237 7.823Z" fill="#B09292"/>
</svg>
