<svg width="34" height="34" viewBox="0 0 34 34" fill="none" xmlns="http://www.w3.org/2000/svg">
<path d="M5.66699 25.5C5.66699 23.9971 6.26401 22.5558 7.32672 21.4931C8.38943 20.4304 9.83077 19.8333 11.3337 19.8333H22.667C24.1699 19.8333 25.6112 20.4304 26.6739 21.4931C27.7366 22.5558 28.3337 23.9971 28.3337 25.5C28.3337 26.2514 28.0351 26.9721 27.5038 27.5035C26.9724 28.0348 26.2518 28.3333 25.5003 28.3333H8.50033C7.74888 28.3333 7.02821 28.0348 6.49686 27.5035C5.9655 26.9721 5.66699 26.2514 5.66699 25.5Z" stroke="white" stroke-linejoin="round"/>
<path d="M17 14.1667C19.3472 14.1667 21.25 12.2639 21.25 9.91667C21.25 7.56946 19.3472 5.66667 17 5.66667C14.6528 5.66667 12.75 7.56946 12.75 9.91667C12.75 12.2639 14.6528 14.1667 17 14.1667Z" stroke="white"/>
</svg>
