<svg width="34" height="34" viewBox="0 0 34 34" fill="none" xmlns="http://www.w3.org/2000/svg">
<path d="M16.9997 7.79167L16.2347 8.52833C16.3338 8.63116 16.4526 8.71296 16.5841 8.76882C16.7155 8.82469 16.8569 8.85349 16.9997 8.85349C17.1425 8.85349 17.2839 8.82469 17.4153 8.76882C17.5467 8.71296 17.6656 8.63116 17.7647 8.52833L16.9997 7.79167ZM13.3532 25.9562C11.2055 24.2632 8.85809 22.61 6.99517 20.5133C5.17051 18.4563 3.89551 16.0579 3.89551 12.9441H1.77051C1.77051 16.7209 3.34301 19.6024 5.40709 21.9243C7.43292 24.2052 10.0169 26.0327 12.0371 27.625L13.3532 25.9562ZM3.89551 12.9441C3.89551 9.89825 5.61676 7.34258 7.96701 6.26733C10.2507 5.22325 13.3192 5.4995 16.2347 8.52833L17.7647 7.05642C14.308 3.46233 10.2903 2.86875 7.08301 4.335C3.94651 5.77008 1.77051 9.10208 1.77051 12.9441H3.89551ZM12.0371 27.625C12.7638 28.1973 13.543 28.8065 14.3321 29.2683C15.1212 29.7302 16.0222 30.1042 16.9997 30.1042V27.9792C16.5605 27.9792 16.0448 27.8092 15.4045 27.4337C14.7628 27.0597 14.0983 26.5441 13.3532 25.9562L12.0371 27.625ZM21.9623 27.625C23.9824 26.0312 26.5664 24.2066 28.5923 21.9243C30.6563 19.601 32.2288 16.7209 32.2288 12.9441H30.1038C30.1038 16.0579 28.8288 18.4563 27.0042 20.5133C25.1413 22.61 22.7938 24.2632 20.6462 25.9562L21.9623 27.625ZM32.2288 12.9441C32.2288 9.10208 30.0543 5.77008 26.9163 4.335C23.709 2.86875 19.6942 3.46233 16.2347 7.055L17.7647 8.52833C20.6802 5.50092 23.7487 5.22325 26.0323 6.26733C28.3826 7.34258 30.1038 9.89683 30.1038 12.9441H32.2288ZM20.6462 25.9562C19.901 26.5441 19.2366 27.0597 18.5948 27.4337C17.9531 27.8077 17.4388 27.9792 16.9997 27.9792V30.1042C17.9772 30.1042 18.8782 29.7287 19.6673 29.2683C20.4578 28.8065 21.2355 28.1973 21.9623 27.625L20.6462 25.9562Z" fill="white"/>
</svg>
