<svg width="47" height="47" viewBox="0 0 47 47" fill="none" xmlns="http://www.w3.org/2000/svg">
<path d="M1.00307 23.2187C1.00196 27.1677 2.04184 31.0235 4.01914 34.4221L0.813965 46.034L12.7902 42.9181C16.1026 44.7074 19.814 45.6449 23.5855 45.6452H23.5954C36.0458 45.6452 46.1807 35.5925 46.186 23.2364C46.1884 17.249 43.8406 11.6188 39.575 7.38302C35.3101 3.14755 29.638 0.813768 23.5945 0.811035C11.1426 0.811035 1.00839 10.8632 1.00325 23.2187" fill="url(#paint0_linear_1_2992)"/>
<path d="M0.196445 23.2114C0.19516 27.3024 1.2723 31.2962 3.32011 34.8164L0 46.8446L12.4056 43.6171C15.8238 45.4663 19.6723 46.4413 23.5883 46.4427H23.5984C36.4955 46.4427 46.9945 36.0284 47 23.23C47.0022 17.0275 44.57 11.1949 40.152 6.80735C35.7334 2.42032 29.8584 0.00255039 23.5984 0C10.6991 0 0.201586 10.4129 0.196445 23.2114ZM7.58444 34.2102L7.12123 33.4806C5.17404 30.4085 4.14628 26.8583 4.14775 23.2129C4.15179 12.5751 12.8769 3.92031 23.6058 3.92031C28.8015 3.9225 33.6843 5.9322 37.3569 9.57853C41.0293 13.2252 43.0502 18.0728 43.0489 23.2286C43.0441 33.8664 34.3188 42.5222 23.5984 42.5222H23.5907C20.1 42.5204 16.6766 41.5903 13.691 39.8325L12.9804 39.4144L5.6187 41.3296L7.58444 34.2102Z" fill="url(#paint1_linear_1_2992)"/>
<path d="M17.7496 13.5076C17.3115 12.5415 16.8505 12.522 16.434 12.5051C16.0928 12.4905 15.7029 12.4916 15.3133 12.4916C14.9233 12.4916 14.2898 12.6372 13.7542 13.2174C13.2181 13.7982 11.7075 15.2016 11.7075 18.056C11.7075 20.9105 13.8029 23.6692 14.095 24.0567C14.3874 24.4435 18.1401 30.4886 24.0834 32.8142C29.0228 34.7469 30.028 34.3625 31.1 34.2656C32.1722 34.169 34.5596 32.8625 35.0467 31.5077C35.5341 30.1531 35.5341 28.9919 35.388 28.7493C35.2419 28.5075 34.8519 28.3623 34.2672 28.0723C33.6824 27.7823 30.8075 26.3785 30.2716 26.1848C29.7355 25.9914 29.3457 25.8948 28.9558 26.4758C28.5658 27.0558 27.4461 28.3623 27.1048 28.7493C26.7639 29.1371 26.4226 29.1854 25.838 28.8952C25.2529 28.6041 23.3698 27.9922 21.1356 26.0158C19.3973 24.4779 18.2238 22.5788 17.8827 21.9978C17.5416 21.4178 17.8462 21.1034 18.1394 20.8143C18.4021 20.5543 18.7243 20.1368 19.0169 19.7981C19.3085 19.4593 19.4058 19.2175 19.6008 18.8306C19.7959 18.4433 19.6983 18.1045 19.5523 17.8143C19.4058 17.5241 18.2695 14.6547 17.7496 13.5076Z" fill="white"/>
<defs>
<linearGradient id="paint0_linear_1_2992" x1="2269.42" y1="4523.1" x2="2269.42" y2="0.811035" gradientUnits="userSpaceOnUse">
<stop stop-color="#1FAF38"/>
<stop offset="1" stop-color="#60D669"/>
</linearGradient>
<linearGradient id="paint1_linear_1_2992" x1="2350" y1="4684.46" x2="2350" y2="0" gradientUnits="userSpaceOnUse">
<stop stop-color="#F9F9F9"/>
<stop offset="1" stop-color="white"/>
</linearGradient>
</defs>
</svg>
